<?xml version="1.0" encoding="utf-8"?><svg xmlns="http://www.w3.org/2000/svg" xmlns:xlink="http://www.w3.org/1999/xlink"><symbol fill="none" viewBox="0 0 20 20" id="close-popup" xmlns="http://www.w3.org/2000/svg"><path fill-rule="evenodd" clip-rule="evenodd" d="M.488.488a1.668 1.668 0 0 1 2.357 0L10 7.643 17.155.488a1.667 1.667 0 1 1 2.357 2.357L12.357 10l7.155 7.155a1.667 1.667 0 1 1-2.357 2.357L10 12.357l-7.155 7.155a1.667 1.667 0 1 1-2.357-2.357L7.643 10 .488 2.845a1.667 1.667 0 0 1 0-2.357Z" fill="#868078"/></symbol><symbol viewBox="0 0 24 24" id="ico-calendar" xmlns="http://www.w3.org/2000/svg"><path d="M8 7V3m8 4V3m-9 8h10M5 21h14a2 2 0 0 0 2-2V7a2 2 0 0 0-2-2H5a2 2 0 0 0-2 2v12a2 2 0 0 0 2 2Z"/></symbol><symbol fill="none" viewBox="0 0 24 24" id="ico-calkulate" xmlns="http://www.w3.org/2000/svg"><path d="M9 7h6m0 10v-3m-3 3h.01M9 17h.01M9 14h.01M12 14h.01M15 11h.01M12 11h.01M9 11h.01M7 21h10a2 2 0 0 0 2-2V5a2 2 0 0 0-2-2H7a2 2 0 0 0-2 2v14a2 2 0 0 0 2 2Z"/></symbol><symbol viewBox="0 0 24 24" id="ico-cargo" xmlns="http://www.w3.org/2000/svg"><path d="m20 7-8-4-8 4m16 0-8 4m8-4v10l-8 4m0-10L4 7m8 4v10M4 7v10l8 4"/></symbol><symbol fill="none" viewBox="0 0 17 16" id="ico-download" xmlns="http://www.w3.org/2000/svg"><g clip-path="url(#ea)" fill="#868078"><path d="M16.513 7.8a.49.49 0 0 0-.487.495v4.5c0 1.223-.981 2.216-2.183 2.216H3.157c-1.205 0-2.183-.997-2.183-2.217V8.222a.489.489 0 0 0-.487-.495.49.49 0 0 0-.487.495v4.572C0 14.564 1.418 16 3.157 16h10.686C15.586 16 17 14.56 17 12.794v-4.5a.491.491 0 0 0-.487-.494Z"/><path d="m5.75 3.99 2.266-2.301v10.035a.49.49 0 0 0 .488.495.49.49 0 0 0 .487-.495V1.69l2.265 2.3c.094.096.22.147.343.147a.499.499 0 0 0 .343-.846L8.846.147A.49.49 0 0 0 8.504 0a.468.468 0 0 0-.343.147L5.065 3.29a.499.499 0 0 0 0 .7c.188.19.498.19.686 0Z"/></g><defs><clipPath id="ea"><path fill="#fff" d="M0 0h17v16H0z"/></clipPath></defs></symbol><symbol fill="none" viewBox="0 0 24 24" id="ico-global" xmlns="http://www.w3.org/2000/svg"><path d="M21 12a9 9 0 0 1-9 9m9-9a9 9 0 0 0-9-9m9 9H3m9 9a9 9 0 0 1-9-9m9 9c1.657 0 3-4.03 3-9s-1.343-9-3-9m0 18c-1.657 0-3-4.03-3-9s1.343-9 3-9m-9 9a9 9 0 0 1 9-9"/></symbol><symbol fill="none" viewBox="0 0 37 39" id="ico-operator" xmlns="http://www.w3.org/2000/svg"><path d="M32.88 13.685C32.509 6.082 26.205 0 18.5 0 10.795 0 4.491 6.082 4.12 13.685A4.868 4.868 0 0 0 0 18.493v4.932a4.882 4.882 0 0 0 4.903 4.89h1.071a4.882 4.882 0 0 0 4.903-4.89v-4.932c0-2.424-1.771-4.397-4.037-4.808.37-6.123 5.438-10.973 11.66-10.973s11.29 4.85 11.66 10.973c-2.307.41-4.038 2.425-4.038 4.808v4.932a4.86 4.86 0 0 0 3.256 4.602c-1.154 2.63-3.462 4.603-6.263 5.384a3.176 3.176 0 0 0-3.05-2.343h-3.172a3.17 3.17 0 0 0-3.173 3.165v1.603A3.17 3.17 0 0 0 16.893 39h3.173a3.134 3.134 0 0 0 3.131-2.836c4.162-.904 7.54-3.945 8.982-7.89A4.891 4.891 0 0 0 37 23.384v-4.932c0-2.384-1.772-4.397-4.12-4.767ZM8.158 18.493v4.932a2.195 2.195 0 0 1-2.184 2.178h-1.07a2.195 2.195 0 0 1-2.185-2.178v-4.932c0-1.192.99-2.178 2.184-2.178h1.071c1.195 0 2.184.986 2.184 2.178ZM20.56 35.877a.457.457 0 0 1-.453.452h-3.173a.457.457 0 0 1-.453-.452v-1.603c0-.247.206-.452.453-.452h3.173c.247 0 .453.205.453.452v1.603Zm13.72-12.452a2.195 2.195 0 0 1-2.183 2.178h-1.071a2.195 2.195 0 0 1-2.184-2.178v-4.932c0-1.192.989-2.178 2.184-2.178h1.07c1.196 0 2.185.986 2.185 2.178v4.932Z" fill="#E49F46"/></symbol><symbol fill="none" viewBox="0 0 24 24" id="ico-phone" xmlns="http://www.w3.org/2000/svg"><path d="M2.398 3.6a1.2 1.2 0 0 1 1.2-1.2h2.584a1.2 1.2 0 0 1 1.184 1.003l.887 5.323a1.2 1.2 0 0 1-.647 1.27l-1.858.93a13.244 13.244 0 0 0 7.325 7.324l.93-1.857a1.2 1.2 0 0 1 1.27-.647l5.323.887a1.2 1.2 0 0 1 1.002 1.184V20.4a1.2 1.2 0 0 1-1.2 1.2h-2.4c-8.615 0-15.6-6.985-15.6-15.6V3.6Z" fill="#F69E29"/></symbol><symbol viewBox="0 0 21 21" id="ico-tg" xmlns="http://www.w3.org/2000/svg"><path d="M18.12 3.198s1.7-.663 1.56.947c-.048.662-.473 2.982-.804 5.491l-1.133 7.434s-.094 1.088-.944 1.278c-.85.19-2.125-.663-2.361-.852-.189-.142-3.541-2.273-4.722-3.314-.33-.285-.708-.853.047-1.516l4.958-4.734c.567-.568 1.133-1.894-1.227-.284l-6.61 4.498s-.756.473-2.173.047l-3.069-.947s-1.133-.71.803-1.42C7.167 7.6 12.975 5.328 18.12 3.198Z"/></symbol><symbol viewBox="0 0 21 21" id="ico-vk" xmlns="http://www.w3.org/2000/svg"><g clip-path="url(#ja)"><path d="M18.692 12.913s1.698 1.677 2.118 2.453a.131.131 0 0 1 .019.036c.171.287.213.512.13.678-.143.274-.622.411-.785.423h-3.001c-.21 0-.644-.055-1.173-.42-.404-.283-.806-.748-1.196-1.202-.582-.676-1.085-1.261-1.594-1.261a.574.574 0 0 0-.189.031c-.385.122-.875.67-.875 2.134 0 .457-.36.718-.614.718h-1.374c-.469 0-2.907-.164-5.069-2.444C2.44 11.27.061 5.67.038 5.621c-.148-.363.163-.56.499-.56h3.03c.406 0 .539.246.631.466.107.253.504 1.265 1.155 2.403 1.054 1.85 1.702 2.603 2.22 2.603a.554.554 0 0 0 .277-.074c.676-.372.55-2.787.519-3.284 0-.097-.001-1.079-.348-1.553-.248-.34-.67-.473-.925-.521.068-.099.213-.25.399-.34.463-.23 1.3-.264 2.13-.264h.461c.901.013 1.134.07 1.462.153.66.158.672.585.614 2.04-.017.416-.034.885-.034 1.436 0 .117-.006.249-.006.382-.02.747-.046 1.588.481 1.933a.43.43 0 0 0 .228.065c.183 0 .73 0 2.213-2.546.651-1.125 1.155-2.45 1.19-2.55.03-.056.118-.213.225-.276a.503.503 0 0 1 .248-.058h3.564c.389 0 .652.058.704.205.086.239-.017.966-1.644 3.167-.274.367-.515.684-.726.961-1.475 1.936-1.475 2.034.087 3.504Z"/></g><defs><clipPath id="ja"><path fill="#fff" d="M0 0h21v21H0z"/></clipPath></defs></symbol><symbol viewBox="0 0 19 19" id="ico-wa" xmlns="http://www.w3.org/2000/svg"><g clip-path="url(#ka)"><path d="M19 9.256c0 5.11-4.176 9.255-9.328 9.255a9.356 9.356 0 0 1-4.508-1.151L0 19l1.683-4.967A9.161 9.161 0 0 1 .346 9.255C.346 4.144 4.52 0 9.673 0 14.825.001 19 4.144 19 9.256Zm-9.329-7.78c-4.324 0-7.84 3.49-7.84 7.781 0 1.703.554 3.28 1.493 4.562l-.979 2.889 3.012-.958a7.84 7.84 0 0 0 4.314 1.287c4.324 0 7.843-3.49 7.843-7.781 0-4.29-3.518-7.78-7.843-7.78Zm4.711 9.912c-.058-.094-.21-.151-.438-.265-.228-.114-1.353-.662-1.562-.737-.21-.076-.363-.114-.516.113-.15.227-.589.738-.723.89-.133.152-.267.171-.495.06-.229-.116-.966-.354-1.84-1.127-.68-.602-1.138-1.343-1.271-1.57-.135-.227-.014-.35.1-.463.102-.102.228-.265.343-.398.115-.132.152-.226.229-.378.075-.151.037-.283-.02-.398-.057-.114-.513-1.23-.705-1.683-.19-.454-.38-.379-.514-.379-.133 0-.286-.018-.438-.018-.152 0-.4.055-.609.282-.209.227-.8.776-.8 1.892 0 1.118.819 2.195.933 2.346.115.151 1.583 2.517 3.907 3.425 2.325.908 2.325.605 2.744.567.42-.039 1.353-.549 1.542-1.078.191-.531.191-.987.133-1.082Z"/></g><defs><clipPath id="ka"><path fill="#fff" d="M0 0h19v19H0z"/></clipPath></defs></symbol><symbol fill="none" viewBox="0 0 24 24" id="location-marker" xmlns="http://www.w3.org/2000/svg"><path d="M17.657 16.657 13.414 20.9a1.998 1.998 0 0 1-2.827 0l-4.244-4.243a8 8 0 1 1 11.314 0Z" stroke="#BDBDBD" stroke-width="2" stroke-linecap="round" stroke-linejoin="round"/><path d="M15 11a3 3 0 1 1-6 0 3 3 0 0 1 6 0Z" stroke="#BDBDBD" stroke-width="2" stroke-linecap="round" stroke-linejoin="round"/></symbol><symbol fill="none" viewBox="0 0 60 60" id="logistic-ico-1" xmlns="http://www.w3.org/2000/svg"><path d="M60 0H0v60h60V0Z" fill="#F69E29"/><path d="M11.788 21.004h-1.273a1.477 1.477 0 0 1-1.41-.936 1.491 1.491 0 0 1-.104-.588v-8.951a1.491 1.491 0 0 1 .921-1.419c.185-.075.384-.113.584-.11h38.556c1.272 0 1.83.551 1.83 1.836v8.423c0 1.176-.572 1.74-1.757 1.745h-1.039V46.25c0 .946-.375 1.524-1.13 1.712-.198.04-.399.057-.6.05H13.513c-1.147.004-1.72-.573-1.72-1.73V21.674l-.005-.67Zm33.306.037H14.808V44.97h30.286V21.04ZM12.016 17.97h35.837v-5.945H12.016v5.945Z" fill="#161210"/><path d="M37.42 27.012H22.463v4.343a1.51 1.51 0 0 1-.887 1.52 1.497 1.497 0 0 1-2.032-.901 1.51 1.51 0 0 1-.07-.62v-5.719a1.5 1.5 0 0 1 .987-1.546 1.5 1.5 0 0 1 .647-.079h17.665a1.503 1.503 0 0 1 1.549.979c.076.206.107.427.09.646v5.761a1.504 1.504 0 0 1-.903 1.462 1.493 1.493 0 0 1-1.997-.863c-.07-.191-.1-.395-.09-.599v-3.888l-.004-.496Z" fill="#161210"/></symbol><symbol fill="none" viewBox="0 0 60 60" id="logistic-ico-2" xmlns="http://www.w3.org/2000/svg"><path d="M60 0H0v60h60V0Z" fill="#F69E29"/><path d="M52.006 17.737v23.56a1.624 1.624 0 0 1-1.062 1.052 9618.784 9618.784 0 0 0-20.006 7.514 1.831 1.831 0 0 1-1.463-.032 3604.449 3604.449 0 0 0-17.329-7.423 1.65 1.65 0 0 1-1.14-1.72c.021-7.45.021-14.9 0-22.35a1.635 1.635 0 0 1 1.117-1.688c4.337-1.846 8.67-3.704 12.996-5.571 1.6-.688 3.198-1.38 4.793-2.079h.64c.075.047.153.089.234.125 6.656 2.5 13.311 4.996 19.967 7.486a1.83 1.83 0 0 1 1.253 1.126Zm-2.56 2.102c-.18.062-.305.098-.43.145-1.444.543-2.888 1.093-4.34 1.621a.476.476 0 0 0-.363.55v7.452c0 .836-.265 1.227-1.038 1.516a578.486 578.486 0 0 1-4.714 1.77c-1.132.422-1.952-.144-1.952-1.363v-6.877c-.18.058-.32.097-.456.148-1.421.536-2.838 1.079-4.266 1.594a.527.527 0 0 0-.39.598v19.908c.167-.055.28-.09.39-.133a9821.894 9821.894 0 0 1 17.211-6.45c.29-.106.336-.259.336-.524V20.277l.012-.438ZM28.932 46.776V26.88a.481.481 0 0 0-.359-.516c-4.873-2.084-9.744-4.168-14.612-6.252l-.39-.152v19.939c0 .29.128.39.355.477l14.612 6.252c.117.05.242.09.394.148Zm5.437-24.03c-.148-.07-.227-.117-.312-.152-1.378-.57-2.752-1.145-4.134-1.712a1.432 1.432 0 0 1-.881-.813c-.262-.687.07-1.363.85-1.695 1.561-.676 3.146-1.321 4.684-2.013a1.763 1.763 0 0 1 1.56 0c2.17.989 4.353 1.954 6.523 2.943a.936.936 0 0 0 .78.02c1.054-.415 2.115-.806 3.177-1.204.102-.04.2-.094.355-.168-.144-.063-.222-.102-.304-.133a6939.717 6939.717 0 0 0-16.146-6.037.807.807 0 0 0-.558 0c-4.684 1.995-9.36 3.998-14.031 6.01-.102.042-.195.101-.32.167.082.047.113.07.148.086 4.762 2.048 9.523 4.091 14.284 6.131a.55.55 0 0 0 .39 0c1.289-.43 2.569-.918 3.935-1.43Zm7.388-.031c-.78.289-1.503.578-2.24.828a.422.422 0 0 0-.324.492v5.88c.78-.292 1.526-.581 2.275-.843a.39.39 0 0 0 .293-.434v-4.56l-.004-1.363Zm-2.104-1.954a744.555 744.555 0 0 0-4.102-1.832.417.417 0 0 0-.3-.043c-.55.218-1.093.46-1.702.722l4.196 1.731c.083.04.176.05.265.032.523-.184 1.038-.383 1.643-.61Z" fill="#161210"/><path d="M23.82 40.212a1.307 1.307 0 0 1-1.56 1.344 2.076 2.076 0 0 1-.329-.125l-4.886-2.083a1.283 1.283 0 0 1-.943-1.203 1.285 1.285 0 0 1 1.927-1.149c1.4.586 2.794 1.172 4.191 1.782.293.129.594.242.882.39a1.245 1.245 0 0 1 .718 1.044Z" fill="#161210"/></symbol><symbol fill="none" viewBox="0 0 60 60" id="logistic-ico-3" xmlns="http://www.w3.org/2000/svg"><path d="M60 0H0v60h60V0Z" fill="#F69E29"/><path d="M12 9c1.018.422 1.965.831 2.92 1.222 1.972.89 4.09 1.414 6.25 1.55 2.947.094 5.592-.899 8.07-2.39a1.165 1.165 0 0 1 1.388 0c2.52 1.415 5.173 2.38 8.116 2.313a17.832 17.832 0 0 0 6.173-1.482 329.16 329.16 0 0 0 2.898-1.19v24.449a11.393 11.393 0 0 1-2.636 7.35 36.077 36.077 0 0 1-14.97 11.121.777.777 0 0 1-.576 0A40.087 40.087 0 0 1 14.13 39.906 9.514 9.514 0 0 1 12 33.93V9Zm32.444 4.99c-.212.06-.383.1-.554.153a18.1 18.1 0 0 1-5.795.899 18.52 18.52 0 0 1-7.48-1.896 1.301 1.301 0 0 0-1.28 0c-3.704 1.829-7.566 2.525-11.644 1.496-.766-.193-1.527-.413-2.307-.629v19.721a6.443 6.443 0 0 0 1.415 4.078 36.712 36.712 0 0 0 12.915 10.449c.17.07.36.07.531 0A31.977 31.977 0 0 0 42.9 38.257a7.393 7.393 0 0 0 1.545-4.622V13.99Z" fill="#161210"/><path d="m37.943 22.148 2.334 2.332-12.194 12.155-7.755-7.73 2.303-2.287 5.407 5.39 9.905-9.86Z" fill="#161210"/></symbol><symbol fill="none" viewBox="0 0 60 60" id="logistic-ico-4" xmlns="http://www.w3.org/2000/svg"><path d="M60 0H0v60h60V0Z" fill="#F69E29"/><path d="M31.875 7c.45.058.901.103 1.352.175 5.945.968 10.146 4.215 12.576 9.676 1.573 3.559 1.627 7.243.514 10.976a40.512 40.512 0 0 1-3.895 8.727A91.088 91.088 0 0 1 32.326 50.5c-.902 1.026-1.75 1.026-2.637 0-4.264-4.948-8.159-10.189-11.21-15.992-1.398-2.658-2.628-5.397-3.156-8.362-1.086-5.848.573-10.796 4.864-14.899a15.614 15.614 0 0 1 9.06-4.147l.901-.1h1.727ZM31 47.593c.1-.108.15-.157.194-.216 2.033-2.699 4.134-5.326 6.076-8.097a48.107 48.107 0 0 0 5.41-9.761 18.125 18.125 0 0 0 1.478-5.96 12.302 12.302 0 0 0-1.988-7.472c-2.948-4.499-7.163-6.55-12.513-6.132a12.069 12.069 0 0 0-7.514 3.397c-3.732 3.544-5.044 7.867-3.863 12.892.69 2.937 2.002 5.632 3.457 8.245a84.82 84.82 0 0 0 7.483 10.936c.577.71 1.172 1.422 1.78 2.168Z" fill="#161210"/><path d="M30.957 31.098a8.099 8.099 0 0 1-4.496-1.38 8.074 8.074 0 0 1-2.965-3.646 8.055 8.055 0 0 1 1.82-8.798 8.092 8.092 0 0 1 8.845-1.668 8.082 8.082 0 0 1 3.602 3.02 8.058 8.058 0 0 1-1.108 10.156 8.095 8.095 0 0 1-5.698 2.316Zm.04-13.239a5.187 5.187 0 0 0-2.873.884 5.17 5.17 0 0 0-2.179 5.315 5.165 5.165 0 0 0 1.43 2.64 5.182 5.182 0 0 0 5.648 1.096 5.177 5.177 0 0 0 2.316-1.913 5.16 5.16 0 0 0 .86-2.875 5.182 5.182 0 0 0-1.538-3.643 5.203 5.203 0 0 0-3.663-1.504Z" fill="#161210"/></symbol><symbol fill="none" viewBox="0 0 60 60" id="logistic-ico-5" xmlns="http://www.w3.org/2000/svg"><path d="M60 0H0v60h60V0Z" fill="#F69E29"/><path d="M34.183 9c1.44.248 2.469 1.18 3.48 2.16a470.341 470.341 0 0 0 6.726 6.367 4.878 4.878 0 0 1 1.608 3.751c-.014 8.351-.014 16.702 0 25.053a4.483 4.483 0 0 1-3.472 4.532 5.181 5.181 0 0 1-1.177.126h-22.67c-2.717 0-4.66-1.962-4.678-4.68 0-10.856.029-21.708 0-32.561 0-2.696 1.943-4.464 3.843-4.69.036 0 .069-.036.104-.058h16.236Zm-.986 2.462H18.743c-1.44 0-2.27.828-2.27 2.257v32.558c0 1.44.834 2.257 2.273 2.257h22.505c1.44 0 2.278-.828 2.278-2.293V21.304h-7.197c-1.98 0-3.145-1.178-3.149-3.168v-6.674h.014Zm2.462 1.199v5.698c0 .396.237.497.59.497h5.65c.06 0 .122 0 .27-.022l-6.51-6.173Z" fill="#161210"/><path d="M29.76 27.865h-8.932a1.223 1.223 0 0 1-1.227-1.688 1.199 1.199 0 0 1 1.195-.767h17.862c.986 0 1.616.864 1.241 1.71a1.252 1.252 0 0 1-1.252.752h-7.373l-1.515-.007Zm.034 4.1h8.888a1.23 1.23 0 0 1 1.209 1.707 1.23 1.23 0 0 1-1.191.752H21.006a2.494 2.494 0 0 1-.532-.03 1.227 1.227 0 0 1 .302-2.425l9.018-.004Zm-6.104 6.551h2.878a1.264 1.264 0 0 1 1.371 1.214c0 .72-.561 1.245-1.375 1.248h-5.707a1.233 1.233 0 0 1-.946-2.142 1.235 1.235 0 0 1 .946-.316l2.832-.004Z" fill="#161210"/></symbol><symbol fill="none" viewBox="0 0 60 60" id="logistic-ico-6" xmlns="http://www.w3.org/2000/svg"><path d="M60 0H0v60h60V0Z" fill="#F69E29"/><path d="M24.987 52.086a7.112 7.112 0 0 1-.964-.853 227.643 227.643 0 0 1-3.288-4.291.398.398 0 0 0-.418-.216.394.394 0 0 0-.155.061c-1.707.726-3.426 1.424-5.137 2.146-.57.238-1.107.29-1.581-.14-.474-.428-.522-.967-.36-1.586l3.624-13.516a.796.796 0 0 0-.107-.77 16.502 16.502 0 0 1-2.347-14.061 16.46 16.46 0 0 1 3.536-6.393 16.385 16.385 0 0 1 5.947-4.223 16.331 16.331 0 0 1 14.183.81 16.405 16.405 0 0 1 5.432 4.874 16.476 16.476 0 0 1 2.789 6.755 16.172 16.172 0 0 1-2.73 12.203.87.87 0 0 0-.131.793c1.217 4.51 2.407 9.027 3.647 13.532.34 1.234-.569 2.122-1.58 1.845a8.236 8.236 0 0 1-.937-.373c-1.521-.635-3.05-1.261-4.568-1.912a.393.393 0 0 0-.573.159 253.66 253.66 0 0 1-3.343 4.362 5.842 5.842 0 0 1-.913.794h-.636a1.71 1.71 0 0 1-1.075-1.325c-.917-3.494-1.862-6.98-2.786-10.474-.08-.294-.198-.397-.506-.397-.309 0-.463.052-.55.397-.92 3.494-1.869 6.98-2.786 10.474a1.711 1.711 0 0 1-1.075 1.325h-.612Zm4.964-14.821a13.734 13.734 0 0 0 7.656-2.31 13.808 13.808 0 0 0 5.087-6.19 13.864 13.864 0 0 0 .802-7.983 13.834 13.834 0 0 0-3.754-7.085A13.754 13.754 0 0 0 32.7 9.9c-2.67-.538-5.44-.27-7.958.77a13.779 13.779 0 0 0-6.19 5.08 13.853 13.853 0 0 0-2.334 7.673 13.88 13.88 0 0 0 4.022 9.763 13.78 13.78 0 0 0 9.71 4.079Zm-3.028 2.351a16.576 16.576 0 0 1-8.014-4.033l-2.651 9.955c.22-.084.36-.127.49-.183l3.347-1.396c1.011-.424 1.426-.31 2.106.58l2.24 2.93c.076.095.159.187.285.333l2.197-8.186Zm16.8 5.95c-.901-3.376-1.779-6.648-2.668-9.971a16.524 16.524 0 0 1-8.002 4.025c.73 2.737 1.454 5.438 2.193 8.214.142-.175.233-.282.32-.397l2.24-2.93c.637-.833 1.076-.948 2.048-.544l3.868 1.602Z" fill="#161210"/><path d="M35.691 32.708a6.995 6.995 0 0 1-.861-.397 436.754 436.754 0 0 1-4.529-2.855.488.488 0 0 0-.62 0 353.082 353.082 0 0 1-4.6 2.91 1.325 1.325 0 0 1-2.067-.65 1.337 1.337 0 0 1 .004-.833c.442-1.745.87-3.498 1.324-5.239a.589.589 0 0 0-.237-.702c-1.368-1.126-2.715-2.28-4.079-3.407a1.371 1.371 0 0 1-.541-1.55c.162-.564.648-.877 1.355-.924 1.794-.12 3.589-.246 5.383-.35a.461.461 0 0 0 .466-.352c.652-1.662 1.328-3.316 1.976-4.978.237-.61.609-1.031 1.308-1.039.624 0 1.027.31 1.316 1.031.664 1.658 1.332 3.312 1.976 4.978a.484.484 0 0 0 .506.357c1.81.11 3.616.238 5.425.36a1.29 1.29 0 0 1 1.27.909 1.326 1.326 0 0 1-.495 1.523c-1.383 1.154-2.766 2.32-4.145 3.462a.563.563 0 0 0-.21.674c.453 1.761.901 3.523 1.344 5.287a1.397 1.397 0 0 1-.668 1.617c-.185.1-.39.158-.6.168ZM33.61 28.44c-.036-.182-.044-.254-.06-.321-.24-.952-.474-1.908-.723-2.856a1.433 1.433 0 0 1 .526-1.622c.415-.325.79-.674 1.21-1.015l1.3-1.095c-.281-.031-.455-.055-.63-.067l-2.765-.182a1.3 1.3 0 0 1-1.186-.83c-.154-.364-.296-.733-.442-1.098-.273-.674-.546-1.345-.85-2.102-.099.218-.158.341-.21.472-.347.869-.7 1.737-1.043 2.61a1.403 1.403 0 0 1-1.328.928c-.917.043-1.837.119-2.766.182-.146 0-.292.044-.522.075.886.746 1.684 1.428 2.498 2.095a1.432 1.432 0 0 1 .526 1.586l-.297 1.146c-.162.659-.32 1.32-.506 2.078.957-.602 1.834-1.13 2.684-1.697a1.545 1.545 0 0 1 1.904 0c.862.595 1.74 1.118 2.68 1.713Z" fill="#161210"/></symbol></svg>