<?xml version="1.0" encoding="utf-8"?><svg xmlns="http://www.w3.org/2000/svg" xmlns:xlink="http://www.w3.org/1999/xlink"><symbol viewBox="0 0 24 24" id="ico-calendar" xmlns="http://www.w3.org/2000/svg"><path d="M8 7V3m8 4V3m-9 8h10M5 21h14a2 2 0 0 0 2-2V7a2 2 0 0 0-2-2H5a2 2 0 0 0-2 2v12a2 2 0 0 0 2 2Z"/></symbol><symbol fill="none" viewBox="0 0 24 24" id="ico-calkulate" xmlns="http://www.w3.org/2000/svg"><path d="M9 7h6m0 10v-3m-3 3h.01M9 17h.01M9 14h.01M12 14h.01M15 11h.01M12 11h.01M9 11h.01M7 21h10a2 2 0 0 0 2-2V5a2 2 0 0 0-2-2H7a2 2 0 0 0-2 2v14a2 2 0 0 0 2 2Z"/></symbol><symbol viewBox="0 0 24 24" id="ico-cargo" xmlns="http://www.w3.org/2000/svg"><path d="m20 7-8-4-8 4m16 0-8 4m8-4v10l-8 4m0-10L4 7m8 4v10M4 7v10l8 4"/></symbol><symbol fill="none" viewBox="0 0 24 24" id="ico-global" xmlns="http://www.w3.org/2000/svg"><path d="M21 12a9 9 0 0 1-9 9m9-9a9 9 0 0 0-9-9m9 9H3m9 9a9 9 0 0 1-9-9m9 9c1.657 0 3-4.03 3-9s-1.343-9-3-9m0 18c-1.657 0-3-4.03-3-9s1.343-9 3-9m-9 9a9 9 0 0 1 9-9"/></symbol><symbol fill="none" viewBox="0 0 24 24" id="ico-phone" xmlns="http://www.w3.org/2000/svg"><path d="M2.398 3.6a1.2 1.2 0 0 1 1.2-1.2h2.584a1.2 1.2 0 0 1 1.184 1.003l.887 5.323a1.2 1.2 0 0 1-.647 1.27l-1.858.93a13.244 13.244 0 0 0 7.325 7.324l.93-1.857a1.2 1.2 0 0 1 1.27-.647l5.323.887a1.2 1.2 0 0 1 1.002 1.184V20.4a1.2 1.2 0 0 1-1.2 1.2h-2.4c-8.615 0-15.6-6.985-15.6-15.6V3.6Z" fill="#F69E29"/></symbol><symbol viewBox="0 0 21 21" id="ico-tg" xmlns="http://www.w3.org/2000/svg"><path d="M18.12 3.198s1.7-.663 1.56.947c-.048.662-.473 2.982-.804 5.491l-1.133 7.434s-.094 1.088-.944 1.278c-.85.19-2.125-.663-2.361-.852-.189-.142-3.541-2.273-4.722-3.314-.33-.285-.708-.853.047-1.516l4.958-4.734c.567-.568 1.133-1.894-1.227-.284l-6.61 4.498s-.756.473-2.173.047l-3.069-.947s-1.133-.71.803-1.42C7.167 7.6 12.975 5.328 18.12 3.198Z"/></symbol><symbol viewBox="0 0 21 21" id="ico-vk" xmlns="http://www.w3.org/2000/svg"><g clip-path="url(#ga)"><path d="M18.692 12.913s1.698 1.677 2.118 2.453a.131.131 0 0 1 .019.036c.171.287.213.512.13.678-.143.274-.622.411-.785.423h-3.001c-.21 0-.644-.055-1.173-.42-.404-.283-.806-.748-1.196-1.202-.582-.676-1.085-1.261-1.594-1.261a.574.574 0 0 0-.189.031c-.385.122-.875.67-.875 2.134 0 .457-.36.718-.614.718h-1.374c-.469 0-2.907-.164-5.069-2.444C2.44 11.27.061 5.67.038 5.621c-.148-.363.163-.56.499-.56h3.03c.406 0 .539.246.631.466.107.253.504 1.265 1.155 2.403 1.054 1.85 1.702 2.603 2.22 2.603a.554.554 0 0 0 .277-.074c.676-.372.55-2.787.519-3.284 0-.097-.001-1.079-.348-1.553-.248-.34-.67-.473-.925-.521.068-.099.213-.25.399-.34.463-.23 1.3-.264 2.13-.264h.461c.901.013 1.134.07 1.462.153.66.158.672.585.614 2.04-.017.416-.034.885-.034 1.436 0 .117-.006.249-.006.382-.02.747-.046 1.588.481 1.933a.43.43 0 0 0 .228.065c.183 0 .73 0 2.213-2.546.651-1.125 1.155-2.45 1.19-2.55.03-.056.118-.213.225-.276a.503.503 0 0 1 .248-.058h3.564c.389 0 .652.058.704.205.086.239-.017.966-1.644 3.167-.274.367-.515.684-.726.961-1.475 1.936-1.475 2.034.087 3.504Z"/></g><defs><clipPath id="ga"><path fill="#fff" d="M0 0h21v21H0z"/></clipPath></defs></symbol><symbol viewBox="0 0 19 19" id="ico-wa" xmlns="http://www.w3.org/2000/svg"><g clip-path="url(#ha)"><path d="M19 9.256c0 5.11-4.176 9.255-9.328 9.255a9.356 9.356 0 0 1-4.508-1.151L0 19l1.683-4.967A9.161 9.161 0 0 1 .346 9.255C.346 4.144 4.52 0 9.673 0 14.825.001 19 4.144 19 9.256Zm-9.329-7.78c-4.324 0-7.84 3.49-7.84 7.781 0 1.703.554 3.28 1.493 4.562l-.979 2.889 3.012-.958a7.84 7.84 0 0 0 4.314 1.287c4.324 0 7.843-3.49 7.843-7.781 0-4.29-3.518-7.78-7.843-7.78Zm4.711 9.912c-.058-.094-.21-.151-.438-.265-.228-.114-1.353-.662-1.562-.737-.21-.076-.363-.114-.516.113-.15.227-.589.738-.723.89-.133.152-.267.171-.495.06-.229-.116-.966-.354-1.84-1.127-.68-.602-1.138-1.343-1.271-1.57-.135-.227-.014-.35.1-.463.102-.102.228-.265.343-.398.115-.132.152-.226.229-.378.075-.151.037-.283-.02-.398-.057-.114-.513-1.23-.705-1.683-.19-.454-.38-.379-.514-.379-.133 0-.286-.018-.438-.018-.152 0-.4.055-.609.282-.209.227-.8.776-.8 1.892 0 1.118.819 2.195.933 2.346.115.151 1.583 2.517 3.907 3.425 2.325.908 2.325.605 2.744.567.42-.039 1.353-.549 1.542-1.078.191-.531.191-.987.133-1.082Z"/></g><defs><clipPath id="ha"><path fill="#fff" d="M0 0h19v19H0z"/></clipPath></defs></symbol><symbol fill="none" viewBox="0 0 24 24" id="location-marker" xmlns="http://www.w3.org/2000/svg"><path d="M17.657 16.657 13.414 20.9a1.998 1.998 0 0 1-2.827 0l-4.244-4.243a8 8 0 1 1 11.314 0Z" stroke="#BDBDBD" stroke-width="2" stroke-linecap="round" stroke-linejoin="round"/><path d="M15 11a3 3 0 1 1-6 0 3 3 0 0 1 6 0Z" stroke="#BDBDBD" stroke-width="2" stroke-linecap="round" stroke-linejoin="round"/></symbol></svg>